<?xml version="1.0" encoding="utf-8"?>
<!-- Generator: Adobe Illustrator 22.0.1, SVG Export Plug-In . SVG Version: 6.00 Build 0)  -->
<svg version="1.1" id="Layer_1" xmlns="http://www.w3.org/2000/svg" xmlns:xlink="http://www.w3.org/1999/xlink" x="0px" y="0px"
	 viewBox="0 0 16 16" style="enable-background:new 0 0 16 16;" xml:space="preserve">
<style type="text/css">
	.st0{fill:#173B47;}
	.st1{fill:#E9EAEB;}
	.st2{fill:#A7B3B9;}
</style>
<rect x="0" class="st0" width="16" height="16"/>
<path class="st1" d="M6.1,5.4L7.6,7c0.1,0.1,0.1,0.1,0.1,0.2c0,0.1,0,0.1-0.1,0.1H7.2c-0.1,0-0.1,0-0.2-0.1L5.4,5.4v1.7
	c0,0.1-0.1,0.1-0.2,0.1H5c-0.1,0-0.2,0-0.2-0.1V2.9c0-0.1,0.1-0.1,0.2-0.1h0.3c0.1,0,0.2,0,0.2,0.1v2.5l1.4-1.5
	C6.9,3.7,7,3.7,7.1,3.7h0.4c0.1,0,0.1,0,0.1,0.1c0,0,0,0.1-0.1,0.2L6.1,5.4z"/>
<path class="st1" d="M10.6,7.1c0,0.1-0.1,0.1-0.2,0.1H9.8c-0.1,0-0.1,0-0.2-0.1L8.8,5.1c0,0,0-0.1,0-0.1V3.8c0-0.1,0.1-0.1,0.2-0.1
	h0.2c0.1,0,0.2,0,0.2,0.1V5c0,0,0,0.1,0,0.1L10,6.8h0.2l0.6-1.7c0,0,0-0.1,0-0.1V3.8c0-0.1,0.1-0.1,0.2-0.1h0.2c0.1,0,0.2,0,0.2,0.1
	V5c0,0,0,0.1,0,0.1L10.6,7.1z"/>
<path class="st2" d="M7.1,9.8c0.2,0.2,0.3,0.4,0.3,0.6c0,0.1,0,0.1-0.1,0.1H6.9c-0.1,0-0.1,0-0.1-0.1c0-0.1-0.1-0.2-0.2-0.3
	C6.5,10.1,6.4,10,6.2,10c-0.2,0-0.4,0.1-0.5,0.2c-0.2,0.1-0.2,0.3-0.2,0.5v1.9h1.4c0,0,0.1,0,0.1,0c0,0,0,0.1,0,0.1V13
	c0,0,0,0.1,0,0.1c0,0-0.1,0-0.1,0H4.3c0,0-0.1,0-0.1,0c0,0,0-0.1,0-0.1v-0.3c0,0,0-0.1,0-0.1c0,0,0.1,0,0.1,0h0.6v-3
	c0-0.1,0.1-0.1,0.2-0.1h0.2c0.1,0,0.2,0,0.2,0.1v0.2c0.2-0.3,0.5-0.4,0.8-0.4C6.6,9.5,6.9,9.6,7.1,9.8"/>
<path class="st2" d="M9.1,11.9c0,0.2,0.1,0.4,0.2,0.6c0.2,0.1,0.4,0.2,0.6,0.2c0.2,0,0.4-0.1,0.6-0.2c0.2-0.2,0.2-0.3,0.2-0.6v-1.1
	c0-0.2-0.1-0.4-0.2-0.6c-0.2-0.1-0.4-0.2-0.6-0.2c-0.2,0-0.4,0.1-0.6,0.2c-0.2,0.1-0.2,0.3-0.2,0.6V11.9z M10.8,8.8
	c0-0.1,0.1-0.1,0.2-0.1h0.3c0.1,0,0.2,0,0.2,0.1V13c0,0.1-0.1,0.1-0.2,0.1H11c-0.1,0-0.2,0-0.2-0.1v-0.2c0,0-0.1,0.1-0.1,0.1
	c0,0-0.1,0.1-0.3,0.2c-0.2,0.1-0.3,0.1-0.5,0.1c-0.4,0-0.7-0.1-1-0.4c-0.3-0.3-0.4-0.6-0.4-0.9v-1.1c0-0.4,0.1-0.7,0.4-0.9
	c0.3-0.3,0.6-0.4,1-0.4c0.2,0,0.4,0,0.5,0.1c0.2,0.1,0.3,0.1,0.3,0.2l0.1,0.1L10.8,8.8z"/>
</svg>
